<svg width="40" height="40" viewBox="0 0 40 40" fill="none" xmlns="http://www.w3.org/2000/svg">
<g opacity="0.3" clip-path="url(#clip0_3619_10645)">
<path d="M31.875 24.5H38.125C39.1605 24.5 40 23.6605 40 22.625V3.875C40 2.83945 39.1605 2 38.125 2H31.875C30.8395 2 30 2.83945 30 3.875V22.625C30 23.6605 30.8395 24.5 31.875 24.5ZM35 5.125C36.0355 5.125 36.875 5.96445 36.875 7C36.875 8.03555 36.0355 8.875 35 8.875C33.9645 8.875 33.125 8.03555 33.125 7C33.125 5.96445 33.9645 5.125 35 5.125ZM10 33.6366C10 30.3228 12.0289 28.4641 12.5998 26.25H4.65266C2.04352 26.25 0.0122676 24.0823 8.01086e-05 21.7111C-0.00648239 20.3097 0.589609 18.801 1.51875 17.8676L1.52734 17.859C0.758906 16.0358 0.883829 13.4811 2.25453 11.6505C1.57633 9.62742 2.25992 7.14234 3.53437 5.81008C3.19859 4.43523 3.35906 3.26516 4.01469 2.3232C5.60922 0.0322666 9.56125 0 12.9032 0L13.1255 8.01086e-05C16.8979 0.00140823 19.9853 1.37492 22.4661 2.4786C23.7127 3.03321 25.3427 3.71977 26.5795 3.7425C27.0904 3.75188 27.5 4.16883 27.5 4.67984V21.3806C27.5 21.6306 27.3998 21.8705 27.222 22.0463C24.1272 25.1045 22.7964 28.3422 20.2598 30.8831C19.1032 32.0419 18.6826 33.7922 18.2759 35.4848C17.9285 36.9302 17.2018 40 15.625 40C13.75 40 10 39.375 10 33.6366Z" fill="white"/>
</g>
<defs>
<clipPath id="clip0_3619_10645">
<rect width="40" height="40" fill="white" transform="matrix(-1 0 0 -1 40 40)"/>
</clipPath>
</defs>
</svg>
