<svg width="30" height="30" viewBox="0 0 30 30" fill="none" xmlns="http://www.w3.org/2000/svg">
<g style="mix-blend-mode:multiply">
<rect width="30" height="30" rx="15" fill="#424753" fill-opacity="0.3"/>
</g>
<circle cx="15" cy="15" r="10.25" fill="white" fill-opacity="0.12" stroke="white" stroke-width="1.5"/>
<path d="M9.24489 13.3323H12.3416C12.744 13.3323 13.0703 13.006 13.0703 12.6038C13.0703 12.2013 12.744 11.875 12.3416 11.875H9.24489C8.84241 11.875 8.51611 12.2013 8.51611 12.6038C8.51611 13.006 8.84241 13.3323 9.24489 13.3323Z" fill="white"/>
<path d="M10.5 19.6257C10.5 20.0706 10.8101 20.4314 11.1925 20.4314H18.8075C19.1901 20.4314 19.5 20.0706 19.5 19.6257C19.5 19.1809 19.1899 18.8203 18.8075 18.8203H11.1923C10.8099 18.8205 10.5 19.1809 10.5 19.6257Z" fill="white"/>
<path d="M17.5547 13.3323H20.6514C21.0539 13.3323 21.3802 13.006 21.3802 12.6038C21.3802 12.2013 21.0539 11.875 20.6514 11.875H17.5547C17.1527 11.875 16.8262 12.2013 16.8262 12.6038C16.8262 13.006 17.1527 13.3323 17.5547 13.3323Z" fill="white"/>
</svg>
